<svg width="476" height="379" viewBox="0 0 476 379" fill="none" xmlns="http://www.w3.org/2000/svg">
<path d="M231.193 365.508L17.3264 231.316C10.5196 227.261 4.6767 220.591 11.3169 216.232L225.957 84.8455C229.182 82.7231 234.073 81.3334 237.345 83.3547L461.851 221.74C468.658 225.935 469.883 237.658 463.041 241.865L259.42 365.293C255.14 367.934 250.284 369.343 245.333 369.38C240.383 369.418 235.509 368.083 231.193 365.508Z" fill="#96C168"/>
<path style="mix-blend-mode:multiply" d="M92.2488 230.293L59.2263 240.4C59.2263 240.4 67.2469 249.319 75.1723 252.856L102.78 234.98" fill="url(#paint0_linear_1_105)"/>
<path style="mix-blend-mode:multiply" d="M185.39 230.293L98.2107 267.827C98.2107 267.827 181.642 321.796 193.53 327.102L295.418 257.025" fill="url(#paint1_linear_1_105)"/>
<path d="M317.361 153.962C312.327 146.041 301.034 119.082 246.794 115.696C226.778 114.433 203.216 115.974 186.306 128.607C183.24 130.66 180.015 132.435 176.667 133.913C174.478 137.198 172.467 140.672 170.634 144.02C166.148 152.371 163.851 161.593 161.78 170.866C161.246 178.857 161.246 186.878 161.78 194.869C163.066 216.611 169.825 238.568 185.854 253.096C199.849 265.73 218.377 270.783 236.405 272.046C341.53 278.843 322.395 161.884 317.361 153.962Z" fill="#68E1FD"/>
<path d="M321.978 166.975C318.718 152.497 195.16 143.793 171.622 142.251L170.622 144.083C165.362 153.887 163.113 164.878 160.698 175.755C160.295 179.654 160.339 183.591 160.828 187.479C163.208 203.321 175.68 218.329 187.461 203.435C187.461 203.435 197.135 222.776 218.234 228.701C239.333 234.626 246.247 212.922 246.247 212.922C246.247 212.922 251.78 229.257 268.036 229.712C284.291 230.167 295.406 206.643 295.406 206.643C295.406 206.643 300.689 210.433 310.531 208.261C320.372 206.088 325.596 182.981 321.978 166.975Z" fill="#FFE8A6"/>
<path d="M273.307 110.643C271.653 110.074 224.517 105.476 192.506 120.067C187.461 123.693 182.748 127.811 178.036 131.943C175.322 135.821 172.846 139.88 170.622 144.096C167.879 149.359 165.73 154.948 164.22 160.747C168.98 188.035 219.222 200.213 241.451 199.266C268.19 198.129 306.508 187.719 316.016 168.579L273.307 110.643Z" fill="#F2CCA7"/>
<path d="M234.954 122.442C231.241 122.859 227.564 123.466 223.922 124.249C209.142 127.445 186.556 133.522 181.82 151.297C176.548 171.068 197.98 186.38 238.048 187.681C278.115 188.982 311.828 167.594 312.553 155.529C312.851 150.349 307.448 145.498 304.14 142.567C297.022 136.506 289.035 131.694 280.483 128.317C266.036 122.303 250.317 120.712 234.954 122.442Z" fill="#DDB28E"/>
<path d="M202.812 179.697C202.348 171.308 199.694 162.515 198.052 154.316C195.569 141.413 193.058 128.515 190.519 115.62C189.591 110.883 189.519 104.553 185.759 101.281C182.963 98.8432 178.024 96.9356 174.478 98.4516C170.598 100.107 167.088 104.162 164.101 107.118C156.806 114.344 149.988 122.164 143.371 130.085C143.3 130.161 142.062 131.69 142.05 131.677L134.72 125.525L157.389 101.281C160.65 97.7946 163.756 93.7014 167.873 91.1748C172.431 88.3828 178.583 87.1826 183.629 88.9387C190.091 91.1748 195.612 95.129 196.921 102.608C197.814 107.661 198.706 112.891 199.694 118.021L207.06 156.514L212.201 183.398L202.812 179.697Z" fill="#FF734D"/>
<path d="M142.8 129.113C142.625 128.221 142.24 127.391 141.681 126.7C141.204 125.897 140.572 125.212 139.825 124.691C139.386 124.405 138.898 124.215 138.389 124.133C137.88 124.051 137.36 124.077 136.861 124.212C136.362 124.346 135.893 124.585 135.483 124.915C135.072 125.244 134.728 125.658 134.47 126.131C134.41 126.271 134.359 126.414 134.315 126.561C134.123 126.979 134.035 127.442 134.06 127.907C134.085 128.372 134.222 128.822 134.458 129.214L134.553 129.365L134.696 129.58C135.428 130.757 136.375 131.767 137.481 132.549C138.024 132.938 138.661 133.153 139.316 133.169C139.972 133.185 140.617 133.001 141.177 132.64C141.737 132.278 142.187 131.754 142.475 131.128C142.763 130.503 142.875 129.804 142.8 129.113Z" fill="#B5391D"/>
<path d="M187.473 215.664C187.473 215.664 190.233 242.257 199.753 253.159C199.741 253.172 185.64 243.823 187.473 215.664Z" fill="#426619"/>
<path d="M245.342 225.505C245.342 225.505 244.414 253.298 242.867 262.735C242.867 262.773 248.603 248.384 245.342 225.505Z" fill="#426619"/>
<path d="M297.143 215.664C297.143 215.664 297.143 239.376 282.922 254.499C282.922 254.499 299.737 244.543 297.143 215.664Z" fill="#426619"/>
<path opacity="0.54" d="M242.867 187.693C272.843 187.693 297.143 176.704 297.143 163.147C297.143 149.59 272.843 138.6 242.867 138.6C212.891 138.6 188.591 149.59 188.591 163.147C188.591 176.704 212.891 187.693 242.867 187.693Z" fill="#75DBD6"/>
<path d="M261.36 108.874C257.538 112.598 254.671 117.293 253.03 122.518C250.792 129.965 251.074 138.008 253.827 145.258L299.785 133.585L261.36 108.874Z" fill="#68E1FD"/>
<path d="M299.785 133.635L332.307 164.65C335.349 161.233 337.648 157.149 339.043 152.686C340.932 146.513 341.057 139.884 339.4 133.635H299.785Z" fill="#68E1FD"/>
<path d="M273.307 168.958C276.855 171.231 280.631 173.074 284.565 174.454C292.146 177.157 300.202 178.02 308.139 176.98L299.809 133.623L273.307 168.958Z" fill="#68E1FD"/>
<path d="M328.714 114.521C322.765 108.217 315.494 103.498 307.496 100.751C301.848 98.7548 295.931 97.752 289.979 97.782L299.785 133.635L328.714 114.521Z" fill="#68E1FD"/>
<path d="M289.979 97.782C278.734 97.8704 268.464 101.875 261.36 108.887L299.785 133.635L289.979 97.782Z" fill="#68E1FD"/>
<path d="M339.4 133.635C337.437 126.396 333.748 119.817 328.69 114.534L299.761 133.635H339.4Z" fill="#68E1FD"/>
<path d="M308.151 176.98C317.825 175.654 326.405 171.333 332.307 164.638L299.785 133.623L308.151 176.98Z" fill="#68E1FD"/>
<path d="M253.827 145.283C257.183 154.531 264.025 162.97 273.307 168.933L299.785 133.56L253.827 145.283Z" fill="#68E1FD"/>
<g opacity="0.54">
<path d="M289.979 97.782C278.734 97.8704 268.464 101.875 261.36 108.887L299.785 133.635L289.979 97.782Z" fill="white"/>
<path d="M339.4 133.635C337.437 126.396 333.748 119.817 328.69 114.534L299.761 133.635H339.4Z" fill="white"/>
<path d="M308.151 176.98C317.825 175.654 326.405 171.333 332.307 164.638L299.785 133.623L308.151 176.98Z" fill="white"/>
<path d="M253.827 145.283C257.183 154.531 264.025 162.97 273.307 168.933L299.785 133.56L253.827 145.283Z" fill="white"/>
</g>
<path d="M409.527 236.547L338.424 254.145L362.95 277.554L417.428 242.56C415.81 239.894 411.538 238.884 409.527 236.547Z" fill="url(#paint2_linear_1_105)"/>
<path d="M411.002 52.8452C411.002 52.8452 411.002 52.7568 411.002 52.7063C411.002 52.6557 411.002 52.5041 411.002 52.4031C410.705 49.8764 414.156 49.6616 414.965 51.8093C415 51.8994 415.028 51.9924 415.048 52.0872C415.087 52.1857 415.119 52.287 415.143 52.3904C417.309 71.251 418.319 90.241 418.166 109.24C418.149 109.724 417.983 110.188 417.695 110.562C417.406 110.937 417.011 111.201 416.568 111.316C416.125 111.43 415.66 111.388 415.241 111.196C414.823 111.004 414.475 110.672 414.251 110.251C413.934 110.468 413.57 110.594 413.194 110.618C412.818 110.642 412.443 110.562 412.104 110.387C411.766 110.212 411.475 109.947 411.261 109.618C411.047 109.288 410.917 108.906 410.883 108.508C409.612 89.9765 409.652 71.3701 411.002 52.8452Z" fill="#AB9E5A"/>
<path d="M370.566 95.8112C370.721 95.5206 370.935 95.3185 371.102 95.0532C371.035 94.5712 371.15 94.0807 371.423 93.6888C381.443 78.5288 400.292 84.7444 408.86 97.6936C411.292 100.587 412.814 104.212 413.216 108.066C413.513 110.693 409.931 110.807 409.217 108.52C408.978 108.256 408.81 107.929 408.729 107.573C408.024 104.766 406.812 102.132 405.159 99.816C402.089 96.6577 397.686 94.8258 393.343 93.9036C387.833 92.7287 377.432 91.5538 374.124 98.0094C372.875 100.523 369.293 98.3 370.566 95.8112Z" fill="#575C1C"/>
<path d="M366.056 81.0428C383.073 68.7253 410.598 84.9592 412.954 105.779C412.998 106.053 412.981 106.335 412.905 106.601C412.829 106.867 412.696 107.111 412.516 107.313C412.336 107.516 412.114 107.671 411.868 107.766C411.622 107.861 411.358 107.895 411.097 107.863C410.89 107.992 410.658 108.071 410.419 108.094C410.179 108.118 409.938 108.086 409.711 108.001C409.485 107.916 409.279 107.779 409.107 107.6C408.935 107.421 408.802 107.205 408.717 106.966C401.577 89.4819 387.44 76.9875 368.841 84.6181C368.709 84.6591 368.573 84.6845 368.436 84.6939L368.174 84.8581C365.937 86.4373 363.866 82.622 366.056 81.0428Z" fill="#636D27"/>
<path d="M376.147 69.2054C376.245 69.0707 376.357 68.9478 376.48 68.839C376.97 68.4435 377.532 68.1625 378.131 68.0144C378.73 67.8664 379.352 67.8546 379.955 67.98C400.007 65.9586 416.393 87.3848 416.559 107.623C416.566 107.93 416.508 108.235 416.39 108.515C416.272 108.795 416.096 109.044 415.877 109.244C415.657 109.443 415.398 109.588 415.119 109.668C414.84 109.749 414.547 109.762 414.263 109.708C413.993 109.931 413.678 110.082 413.342 110.149C413.006 110.216 412.66 110.196 412.333 110.093C412.006 109.989 411.707 109.803 411.461 109.552C411.215 109.3 411.029 108.99 410.919 108.647C408.146 99.6644 406.492 89.8862 400.114 82.8115C397.103 79.5507 393.461 77.0218 389.441 75.3991C385.421 73.7765 381.116 73.0986 376.825 73.4123C374.422 73.5513 374.207 70.0139 376.147 69.2054Z" fill="#746927"/>
<path d="M386.084 59.1872C386.498 58.9372 386.982 58.8479 387.452 58.9345C407.682 62.6108 416.107 82.5588 416.679 102.482C416.679 102.962 416.774 103.442 416.798 103.922C416.952 106.752 412.811 106.739 412.656 103.922C412.656 103.922 412.656 103.808 412.656 103.758C412.629 103.654 412.609 103.549 412.597 103.442C412.597 103.126 412.597 102.81 412.597 102.482C411.24 84.7949 402.601 68.3716 385.536 63.4572C383.073 62.7877 383.87 59.0987 386.084 59.1872Z" fill="#7D7A33"/>
<path d="M414.965 52.8452C414.965 52.8452 414.965 52.7568 414.965 52.7063C414.965 52.6557 414.965 52.5041 414.965 52.4031C415.262 49.8764 411.811 49.6616 411.002 51.8093C410.967 51.8994 410.94 51.9924 410.919 52.0872C410.88 52.1857 410.848 52.287 410.824 52.3904C408.658 71.251 407.648 90.241 407.801 109.24C407.819 109.724 407.984 110.188 408.272 110.562C408.561 110.937 408.956 111.201 409.399 111.316C409.842 111.43 410.308 111.388 410.726 111.196C411.144 111.004 411.492 110.672 411.716 110.251C412.033 110.468 412.397 110.594 412.773 110.618C413.149 110.642 413.524 110.562 413.863 110.387C414.202 110.212 414.492 109.947 414.706 109.618C414.92 109.288 415.05 108.906 415.084 108.508C416.355 89.9765 416.316 71.3701 414.965 52.8452Z" fill="#AB9E5A"/>
<path d="M455.389 95.8112C455.234 95.5206 455.02 95.3185 454.854 95.0532C454.921 94.5712 454.805 94.0807 454.532 93.6888C444.513 78.5288 425.663 84.7444 417.095 97.6936C414.663 100.587 413.141 104.212 412.74 108.066C412.442 110.693 416.024 110.807 416.738 108.52C416.977 108.256 417.146 107.929 417.226 107.573C417.931 104.766 419.144 102.132 420.796 99.816C423.866 96.6577 428.269 94.8258 432.613 93.9036C438.122 92.7287 448.523 91.5538 451.831 98.0094C453.092 100.523 456.662 98.3 455.389 95.8112Z" fill="#575C1C"/>
<path d="M459.899 81.0428C442.882 68.7253 415.358 84.9592 413.001 105.779C412.957 106.053 412.974 106.335 413.05 106.601C413.126 106.867 413.259 107.111 413.439 107.313C413.619 107.516 413.841 107.671 414.087 107.766C414.334 107.861 414.597 107.895 414.858 107.863C415.066 107.992 415.297 108.071 415.536 108.094C415.776 108.118 416.017 108.086 416.244 108.001C416.47 107.916 416.677 107.779 416.848 107.6C417.02 107.421 417.153 107.205 417.238 106.966C424.378 89.4819 438.515 76.9875 457.115 84.6181C457.247 84.6591 457.382 84.6845 457.519 84.6939L457.781 84.8581C460.018 86.4373 462.101 82.622 459.899 81.0428Z" fill="#636D27"/>
<path d="M449.82 69.2054C449.722 69.0707 449.61 68.9478 449.487 68.839C448.998 68.4435 448.435 68.1625 447.836 68.0144C447.237 67.8664 446.615 67.8546 446.012 67.98C425.96 65.9586 409.574 87.3848 409.408 107.623C409.4 107.934 409.459 108.243 409.579 108.526C409.699 108.81 409.878 109.061 410.102 109.261C410.326 109.461 410.589 109.605 410.873 109.683C411.156 109.76 411.453 109.769 411.74 109.708C412.009 109.931 412.325 110.082 412.661 110.149C412.997 110.216 413.342 110.196 413.67 110.093C413.997 109.989 414.296 109.803 414.542 109.552C414.788 109.3 414.974 108.99 415.084 108.647C417.857 99.6644 419.511 89.8862 425.889 82.8115C428.9 79.5507 432.541 77.0218 436.562 75.3991C440.582 73.7765 444.886 73.0986 449.177 73.4123C451.545 73.5513 451.748 70.0139 449.82 69.2054Z" fill="#746927"/>
<path d="M439.883 59.1872C439.469 58.9372 438.985 58.8479 438.515 58.9345C418.285 62.6108 409.86 82.5588 409.289 102.482C409.289 102.962 409.193 103.442 409.17 103.922C409.015 106.752 413.156 106.739 413.311 103.922C413.311 103.922 413.311 103.808 413.311 103.758C413.338 103.654 413.358 103.549 413.37 103.442C413.37 103.126 413.37 102.81 413.37 102.482C414.727 84.7949 423.366 68.3716 440.431 63.4572C442.894 62.7877 442.085 59.0987 439.883 59.1872Z" fill="#7D7A33"/>
<path d="M407.682 242.055C409.084 243 410.68 243.572 412.335 243.722C414.096 243.776 415.843 243.377 417.428 242.56C417.604 242.476 417.753 242.339 417.857 242.166C417.961 241.993 418.014 241.792 418.011 241.587C417.833 214.223 416.667 102.532 416.667 102.532H408.717C408.717 102.532 409.193 112.639 409.717 121.924C409.884 124.855 407.932 215.777 407.682 242.055Z" fill="#974C13"/>
<path d="M63.1652 260.954L102.78 235.511C101.162 232.858 96.8303 231.834 94.8787 229.497L36.89 243.823C45.8269 249.205 54.74 254.764 63.1652 260.954Z" fill="url(#paint3_linear_1_105)"/>
<path d="M96.39 45.8085C96.39 45.8085 96.39 45.72 96.39 45.6695C96.39 45.619 96.39 45.4674 96.39 45.3663C96.0925 42.8396 99.5435 42.6249 100.353 44.7725C100.387 44.8626 100.415 44.9556 100.436 45.0505C100.475 45.1489 100.507 45.2503 100.531 45.3537C102.689 64.2148 103.691 83.2047 103.53 102.204C103.512 102.687 103.347 103.151 103.059 103.526C102.77 103.9 102.375 104.165 101.932 104.279C101.489 104.393 101.024 104.351 100.605 104.159C100.187 103.967 99.8395 103.635 99.6149 103.214C99.2983 103.431 98.9344 103.558 98.5583 103.581C98.1823 103.605 97.8068 103.526 97.4682 103.35C97.1295 103.175 96.8392 102.91 96.6254 102.581C96.4115 102.252 96.2812 101.869 96.2472 101.471C94.9836 82.9391 95.0314 64.3327 96.39 45.8085Z" fill="#AB9E5A"/>
<path d="M55.93 88.7618C56.0847 88.4712 56.2989 88.2691 56.4655 88.0038C56.3987 87.5218 56.5142 87.0313 56.7868 86.6394C66.8066 71.4794 85.6562 77.695 94.2242 90.6442C96.6648 93.5508 98.1877 97.1952 98.5796 101.067C98.8771 103.694 95.2952 103.808 94.5812 101.521C94.3421 101.257 94.1736 100.93 94.0933 100.574C93.3881 97.7672 92.1756 95.1327 90.5233 92.8171C87.4531 89.6588 83.0501 87.8269 78.7066 86.9047C73.2088 85.7045 62.8082 84.5296 59.5 90.96C58.2267 93.4867 54.6448 91.2506 55.93 88.7618Z" fill="#575C1C"/>
<path d="M51.408 73.9934C68.425 61.6759 95.9497 77.9098 98.3059 98.7295C98.3523 99.0097 98.3352 99.2976 98.2562 99.5695C98.1771 99.8413 98.0382 100.089 97.851 100.293C97.6639 100.497 97.4338 100.65 97.1797 100.741C96.9257 100.831 96.655 100.856 96.39 100.814C96.1823 100.942 95.9507 101.021 95.7113 101.045C95.472 101.069 95.2306 101.037 95.0041 100.951C94.7775 100.866 94.5712 100.729 94.3995 100.551C94.2279 100.372 94.0949 100.156 94.01 99.917C86.87 82.4325 72.7328 69.9381 54.1331 77.5687C54.0013 77.6096 53.8656 77.6351 53.7285 77.6445L53.4667 77.8087C51.3009 79.3879 49.2184 75.5852 51.408 73.9934Z" fill="#636D27"/>
<path d="M61.5111 62.1686C61.6092 62.0339 61.7209 61.9111 61.8443 61.8023C62.3335 61.4068 62.8961 61.1258 63.495 60.9777C64.0939 60.8296 64.7156 60.8179 65.3191 60.9432C85.3706 58.9219 101.757 80.348 101.923 100.587C101.93 100.894 101.872 101.198 101.754 101.478C101.636 101.758 101.46 102.007 101.241 102.207C101.021 102.406 100.762 102.551 100.483 102.632C100.204 102.712 99.9114 102.725 99.6268 102.671C99.3573 102.894 99.0416 103.045 98.7059 103.112C98.3702 103.179 98.0244 103.16 97.6971 103.056C97.3699 102.952 97.0708 102.767 96.8248 102.515C96.5788 102.263 96.393 101.953 96.2829 101.61C93.4983 92.615 91.8442 82.8368 85.4658 75.8C82.4548 72.5392 78.8136 70.0103 74.7931 68.3877C70.7726 66.765 66.4685 66.0871 62.1775 66.4008C59.7737 66.5145 59.5714 62.9645 61.5111 62.1686Z" fill="#746927"/>
<path d="M71.4 52.1504C71.8148 51.9004 72.2985 51.8111 72.7685 51.8977C92.9985 55.574 101.424 75.5221 101.995 95.4448C101.995 95.9249 102.09 96.405 102.114 96.885C102.269 99.7149 98.1274 99.7023 97.9727 96.885C97.9727 96.885 97.9727 96.7713 97.9727 96.7208C97.9451 96.6173 97.9252 96.5117 97.9132 96.405C97.9132 96.0891 97.9132 95.7733 97.9132 95.4448C96.5566 77.7582 87.9172 61.3348 70.8526 56.4205C68.425 55.7383 69.2223 52.062 71.4 52.1504Z" fill="#7D7A33"/>
<path d="M100.317 45.8085C100.317 45.8085 100.317 45.72 100.317 45.6695C100.317 45.619 100.317 45.4674 100.317 45.3663C100.615 42.8396 97.1635 42.6249 96.3543 44.7725C96.3195 44.8626 96.2917 44.9556 96.271 45.0505C96.2323 45.1489 96.2005 45.2503 96.1758 45.3537C94.0102 64.2142 93.0006 83.2042 93.1532 102.204C93.1707 102.687 93.3362 103.151 93.6246 103.526C93.9129 103.9 94.3085 104.165 94.7512 104.279C95.1939 104.393 95.6597 104.351 96.0778 104.159C96.496 103.967 96.8437 103.635 97.0683 103.214C97.3849 103.431 97.7488 103.558 98.1249 103.581C98.5009 103.605 98.8764 103.526 99.215 103.35C99.5537 103.175 99.844 102.91 100.058 102.581C100.272 102.252 100.402 101.869 100.436 101.471C101.707 82.9397 101.668 64.3334 100.317 45.8085Z" fill="#AB9E5A"/>
<path d="M140.741 88.7618C140.587 88.4712 140.372 88.2691 140.206 88.0038C140.273 87.5218 140.157 87.0313 139.884 86.6394C129.865 71.4794 111.015 77.695 102.447 90.6442C100.007 93.5508 98.4836 97.1952 98.0917 101.067C97.7942 103.694 101.376 103.808 102.09 101.521C102.329 101.257 102.498 100.93 102.578 100.574C103.283 97.7672 104.496 95.1327 106.148 92.8171C109.218 89.6588 113.621 87.8269 117.965 86.9047C123.474 85.7298 133.875 84.5549 137.183 91.0105C138.445 93.4867 142.026 91.2506 140.741 88.7618Z" fill="#575C1C"/>
<path d="M145.263 73.9934C128.246 61.6759 100.722 77.9098 98.3654 98.7295C98.3213 99.0038 98.3378 99.2852 98.4138 99.5516C98.4898 99.8179 98.6231 100.062 98.8032 100.264C98.9833 100.466 99.2052 100.621 99.4514 100.717C99.6976 100.812 99.9614 100.845 100.222 100.814C100.43 100.942 100.661 101.021 100.9 101.045C101.14 101.069 101.381 101.037 101.608 100.951C101.834 100.866 102.041 100.729 102.212 100.551C102.384 100.372 102.517 100.156 102.602 99.917C109.742 82.4325 123.879 69.9381 142.479 77.5687C142.611 77.6096 142.746 77.6351 142.883 77.6445L143.145 77.8087C145.37 79.3879 147.453 75.5852 145.263 73.9934Z" fill="#636D27"/>
<path d="M135.16 62.1686C135.062 62.0339 134.95 61.9111 134.827 61.8023C134.338 61.4068 133.775 61.1258 133.176 60.9777C132.577 60.8296 131.956 60.8179 131.352 60.9432C111.301 58.9219 94.9144 80.348 94.7478 100.587C94.7415 100.894 94.7994 101.198 94.9176 101.478C95.0357 101.758 95.211 102.007 95.4307 102.207C95.6505 102.406 95.9093 102.551 96.1884 102.632C96.4675 102.712 96.7599 102.725 97.0445 102.671C97.314 102.894 97.6297 103.045 97.9654 103.112C98.301 103.179 98.6469 103.16 98.9742 103.056C99.3014 102.952 99.6005 102.767 99.8465 102.515C100.093 102.263 100.278 101.953 100.388 101.61C103.173 92.615 104.827 82.8368 111.205 75.8C114.212 72.538 117.848 70.0064 121.864 68.3795C125.88 66.7525 130.181 66.0688 134.47 66.3756C136.85 66.5145 137.1 62.9645 135.16 62.1686Z" fill="#746927"/>
<path d="M125.236 52.1504C124.821 51.9004 124.337 51.8111 123.867 51.8977C103.661 55.5867 95.2 75.5094 94.6407 95.4448C94.6407 95.9249 94.5455 96.405 94.5217 96.885C94.367 99.7149 98.5082 99.7023 98.6629 96.885C98.6629 96.885 98.6629 96.7713 98.6629 96.7208C98.6905 96.6173 98.7104 96.5117 98.7224 96.405C98.7224 96.0891 98.7224 95.7733 98.7224 95.4448C100.079 77.7582 108.718 61.3348 125.783 56.4205C128.246 55.7383 127.437 52.062 125.236 52.1504Z" fill="#7D7A33"/>
<path d="M93.0461 234.98C94.4482 235.925 96.0443 236.497 97.699 236.648C99.4601 236.701 101.207 236.303 102.792 235.485C102.968 235.401 103.117 235.265 103.221 235.092C103.325 234.919 103.378 234.717 103.375 234.513C103.197 207.187 102.019 95.4827 102.019 95.4827H94.0814C94.0814 95.4827 94.5574 105.589 95.081 114.875C95.2 117.806 93.296 208.728 93.0461 234.98Z" fill="#974C13"/>
<path style="mix-blend-mode:multiply" d="M406.897 238.303L373.874 248.409C373.874 248.409 381.895 257.328 389.82 260.866L417.428 242.888" fill="url(#paint4_linear_1_105)"/>
<defs>
<linearGradient id="paint0_linear_1_105" x1="103.78" y1="218.026" x2="70.1014" y2="243.846" gradientUnits="userSpaceOnUse">
<stop stop-color="#D4A397"/>
<stop offset="1" stop-color="white"/>
</linearGradient>
<linearGradient id="paint1_linear_1_105" x1="294.751" y1="177.802" x2="149.919" y2="288.852" gradientUnits="userSpaceOnUse">
<stop stop-color="#D4A397"/>
<stop offset="1" stop-color="white"/>
</linearGradient>
<linearGradient id="paint2_linear_1_105" x1="379.884" y1="246.931" x2="432.419" y2="213.22" gradientUnits="userSpaceOnUse">
<stop stop-color="white" stop-opacity="0"/>
<stop offset="0.81" stop-color="#262626" stop-opacity="0.57"/>
<stop offset="1" stop-opacity="0.67"/>
</linearGradient>
<linearGradient id="paint3_linear_1_105" x1="66.6043" y1="242.017" x2="119.14" y2="208.305" gradientUnits="userSpaceOnUse">
<stop stop-color="white" stop-opacity="0"/>
<stop offset="0.81" stop-color="#262626" stop-opacity="0.57"/>
<stop offset="1" stop-opacity="0.67"/>
</linearGradient>
<linearGradient id="paint4_linear_1_105" x1="418.428" y1="226.023" x2="384.749" y2="251.843" gradientUnits="userSpaceOnUse">
<stop stop-color="#D4A397"/>
<stop offset="1" stop-color="white"/>
</linearGradient>
</defs>
</svg>
